name GIL12_free4Moments.mot
datacolumns 7
datarows 67
range 0.09166671 0.64166671
endheader

                time	          RHipMoment	          LHipMoment	         RKneeMoment	         LKneeMoment	        RAnkleMoment	        LAnkleMoment	
          0.09166671	       -271.33792114	        468.40432739	         33.24627686	        532.86474609	        -37.06301880	        -43.83716202	
          0.10000004	       -247.20536804	        421.75421143	         27.95426559	        577.88708496	        -43.45764923	        -18.46339607	
          0.10833337	       -218.91285706	        407.57873535	         27.39271164	        588.22735596	        -46.50769043	         10.48068523	
          0.11666670	       -183.06640625	        383.32922363	         32.57749939	        591.70416260	        -45.67513275	         42.14188385	
          0.12500004	       -139.21238708	        338.24380493	         43.62205124	        586.59332275	        -41.23131943	         74.07064056	
          0.13333337	        -91.00498962	        312.82104492	         59.57543564	        557.35375977	        -34.23186111	        105.63702393	
          0.14166671	        -45.92198944	        277.09109497	         78.15151215	        519.42791748	        -26.25526428	        134.07025146	
          0.15000004	        -12.87811661	        209.05317688	         95.73965454	        483.74829102	        -18.92302895	        161.52070618	
          0.15833338	          1.26870966	        111.33238220	        108.50460815	        457.32586670	        -13.35552120	        186.82203674	
          0.16666672	         -5.78884697	         26.55087280	        113.83379364	        428.79174805	         -9.89905834	        212.49784851	
          0.17500004	        -30.14508629	        -24.96907425	        111.18367004	        395.47174072	         -8.24247551	        235.62440491	
          0.18333337	        -61.93528748	        -27.50960541	        101.78732300	        352.12985229	         -7.75043535	        259.72448730	
          0.19166671	        -89.51461029	        -13.65880108	         87.67366028	        310.36413574	         -7.78820181	        281.24594116	
          0.20000005	       -103.74972534	         -0.34157535	         70.86996460	        268.99676514	         -7.90907860	        302.11352539	
          0.20833337	       -101.06116486	          9.71606159	         53.32783127	        225.93579102	         -7.90084648	        321.05947876	
          0.21666671	        -84.05941772	          6.84728050	         37.07238007	        184.72689819	         -7.76371956	        340.62451172	
          0.22500004	        -59.42706680	         -0.53558022	         24.20790100	        143.28060913	         -7.63333702	        359.38735962	
          0.23333338	        -35.88235474	         -2.10864496	         16.47512436	         97.21406555	         -7.67158413	        378.87356567	
          0.24166670	        -21.71146774	        -12.21115780	         14.45917130	         56.19392395	         -7.96897650	        397.84017944	
          0.25000006	        -21.05731010	        -30.28773499	         17.17202568	         19.77951050	         -8.51681137	        418.36471558	
          0.25833338	        -31.98185349	        -57.78948593	         22.31108856	         -9.27211094	         -9.24042034	        438.41928101	
          0.26666671	        -47.93266296	        -81.66345978	         27.04729271	        -36.89605331	        -10.04688740	        460.65341187	
          0.27500004	        -60.07128525	       -104.81735992	         28.75418091	        -60.95631027	        -10.85552216	        482.71676636	
          0.28333336	        -61.26731873	       -120.59520721	         25.69595909	        -85.55902100	        -11.60383987	        506.12081909	
          0.29166669	        -47.71142197	       -133.33152771	         17.49654198	       -108.75498199	        -12.25336456	        529.61193848	
          0.30000004	        -20.05943680	       -134.65164185	          5.23926783	       -136.03474426	        -12.79488087	        554.81658936	
          0.30833337	         17.79712486	       -152.21632385	         -9.38566971	       -152.55288696	        -13.25458908	        577.77435303	
          0.31666672	         61.18480682	       -166.47311401	        -24.99443054	       -171.34165955	        -13.70953941	        603.07525635	
          0.32500005	        107.68579102	       -171.29878235	        -41.06672668	       -194.17977905	        -14.27473736	        627.54919434	
          0.33333337	        155.37693787	       -183.98068237	        -57.70353699	       -213.07727051	        -15.03411674	        652.74963379	
          0.34166670	        202.72778320	       -202.65667725	        -75.35828400	       -229.35507202	        -15.93743229	        678.74420166	
          0.35000005	        247.03330994	       -216.21005249	        -94.39093781	       -248.90127563	        -16.73059464	        707.43383789	
          0.35833338	        283.76928711	       -235.90951538	       -114.66709137	       -264.19528198	        -16.99959946	        736.83398438	
          0.36666670	        307.45483398	       -260.77780151	       -135.41246033	       -276.18338013	        -16.32041550	        769.98596191	
          0.37500003	        314.11032104	       -297.06469727	       -156.07881165	       -279.97445679	        -14.43544102	        805.11804199	
          0.38333338	        303.35632324	       -336.55187988	       -176.60707092	       -280.18774414	        -11.35962868	        844.66223145	
          0.39166671	        277.90646362	       -378.29919434	       -197.27093506	       -275.34201050	         -7.37173414	        885.37347412	
          0.40000004	        241.10142517	       -423.53848267	       -218.02534485	       -264.44256592	         -2.91370392	        924.87811279	
          0.40833336	        197.68719482	       -462.17752075	       -238.08383179	       -253.04229736	          1.55367172	        960.87377930	
          0.41666672	        152.36029053	       -496.76284790	       -255.33464050	       -241.18728638	          5.64376068	        991.55957031	
          0.42500004	        108.82649994	       -529.78283691	       -266.39553833	       -227.81634521	          9.00049782	       1013.93084717	
          0.43333337	         70.51295471	       -563.53564453	       -267.45977783	       -212.43125916	         11.20328522	       1027.65063477	
          0.44166669	         42.83552933	       -602.55731201	       -256.67813110	       -191.21232605	         11.73820400	       1029.27697754	
          0.45000005	         32.44733810	       -633.54510498	       -235.24851990	       -171.26832581	         10.11691666	       1021.42004395	
          0.45833337	         78.72452545	       -659.29632568	       -222.66912842	       -148.81159973	         -6.07459497	       1002.86138916	
          0.46666670	        374.18103027	       -677.23071289	       -276.92584229	       -124.27524567	        -84.85525513	        975.91912842	
          0.47500005	        528.56427002	       -685.69543457	       -237.56190491	        -92.86865997	       -131.66406250	        933.53131104	
          0.48333338	        732.51440430	       -671.65899658	       -215.23841858	        -61.44684219	       -155.55134583	        874.91253662	
          0.49166670	        754.07135010	       -644.46618652	       -114.90640259	        -26.76847267	       -167.30067444	        802.42834473	
          0.50000000	        764.62988281	       -607.66607666	        -37.30186081	         11.24502468	       -161.78845215	        719.28698730	
          0.50833338	        778.85101318	       -555.48089600	         31.31424141	         46.58259964	       -141.53137207	        622.22698975	
          0.51666671	        723.43371582	       -509.99191284	        128.66835022	         83.20787811	       -119.21679688	        512.37133789	
          0.52500004	        598.21331787	       -435.20828247	        249.75387573	         94.92103577	        -94.58018494	        392.45071411	
          0.53333336	        514.31872559	       -329.89562988	        322.61407471	         74.40885925	        -55.66459656	        271.41967773	
          0.54166675	        523.48419189	       -261.12872314	        349.58612061	         53.90574646	        -23.03086090	        160.56304932	
          0.55000007	        560.85534668	       -239.79901123	        360.99276733	         45.54130936	          0.53773069	         73.46582794	
          0.55833340	        561.36328125	       -257.74627686	        371.41677856	         55.00096893	         19.05943680	         14.59778595	
          0.56666672	        516.22448730	       -280.12661743	        376.75201416	         70.77597046	         37.21446228	        -18.82447052	
          0.57500005	        485.01538086	       -234.64617920	        370.32812500	         49.40028381	         58.33277893	        -36.64996338	
          0.58333337	        465.19491577	       -203.07987976	        350.15783691	         48.18545151	         81.80861664	        -37.39577484	
          0.59166670	        432.79010010	       -170.92221069	        326.35549927	         49.42152786	        108.34619904	        -35.85060120	
          0.60000002	        387.70019531	       -142.73397827	        304.97454834	         53.74761963	        137.19456482	        -32.35129166	
          0.60833335	        329.38873291	       -120.67224121	        291.17687988	         60.49815750	        167.71688843	        -27.47289276	
          0.61666673	        277.23602295	       -104.83483124	        276.47317505	         67.86746979	        198.38920593	        -21.94650078	
          0.62500006	        242.01663208	        -94.58966827	        255.49205017	         74.01641083	        229.95783997	        -16.55453300	
          0.63333338	        224.28546143	        -88.64003754	        226.96076965	         77.78050232	        261.12390137	        -11.97594929	
          0.64166671	        208.78172302	        -84.91697693	        195.88252258	         78.66273499	        290.47106934	         -8.65076733	
